<svg xmlns="http://www.w3.org/2000/svg" width="1200" height="630" viewBox="0 0 1200 630">
  <defs>
    <linearGradient id="bg" x1="0" y1="0" x2="1" y2="1">
      <stop offset="0" stop-color="#FFFFFF"/>
      <stop offset="1" stop-color="#F6FAFF"/>
    </linearGradient>
    <linearGradient id="g" x1="0" y1="0" x2="1" y2="1">
      <stop offset="0" stop-color="#0B3D91"/>
      <stop offset="1" stop-color="#1ABC9C"/>
    </linearGradient>
  </defs>
  <rect width="1200" height="630" fill="url(#bg)"/>
  <circle cx="980" cy="140" r="220" fill="#0B3D91" opacity="0.10"/>
  <circle cx="220" cy="520" r="260" fill="#1ABC9C" opacity="0.10"/>

  <g transform="translate(92,96)">
    <rect x="0" y="0" width="84" height="84" rx="22" fill="#FFFFFF" stroke="#D7E6FF"/>
    <circle cx="40" cy="42" r="18" fill="url(#g)" opacity="0.95"/>
    <path d="M14 45c10-10 40-16 58-8" fill="none" stroke="url(#g)" stroke-width="6" stroke-linecap="round"/>
  </g>

  <g fill="#122245" font-family="ui-sans-serif, system-ui, -apple-system, Segoe UI, Roboto, Helvetica, Arial" transform="translate(200,118)">
    <text x="0" y="0" font-size="56" font-weight="800">Lumina</text>
    <text x="210" y="0" font-size="56" font-weight="800" fill="#1ABC9C"> CRM</text>
    <text x="0" y="64" font-size="34" fill="#4B5A78">Claridad y control en la gestión de tus clientes</text>
  </g>

  <g transform="translate(200,270)" font-family="ui-sans-serif, system-ui" fill="#122245">
    <rect x="0" y="0" width="800" height="220" rx="22" fill="#FFFFFF" stroke="#D7E6FF"/>
    <g transform="translate(28,34)" fill="#122245">
      <text x="0" y="0" font-size="22" fill="#4B5A78">IA/ML · Automatización · Eficiencia · Conectividad</text>
      <text x="0" y="52" font-size="30" font-weight="700">Elegancia corporativa para vender con proceso.</text>
      <g transform="translate(0,88)">
        <rect x="0" y="0" width="212" height="52" rx="14" fill="url(#g)"/>
        <text x="22" y="34" font-size="18" font-weight="800" fill="#FFFFFF">Solicitar demo</text>
        <rect x="232" y="0" width="212" height="52" rx="14" fill="#FFFFFF" stroke="#D7E6FF"/>
        <text x="254" y="34" font-size="18" font-weight="800" fill="#0B3D91">Ver funcionalidades</text>
      </g>
    </g>
  </g>
</svg>
